<mxfile host="app.diagrams.net" modified="2020-11-05T03:39:05.290Z" agent="5.0 (Windows NT 10.0; Win64; x64) AppleWebKit/537.36 (KHTML, like Gecko) Chrome/79.0.3945.88 Safari/537.36" etag="dUROjkfICDaw8caSPEP2" version="13.6.5" type="github">
  <diagram id="zeSlncXNw95vG9Oa1e-z" name="Page-1">
    <mxGraphModel dx="1422" dy="762" grid="0" gridSize="10" guides="1" tooltips="1" connect="1" arrows="1" fold="1" page="1" pageScale="1" pageWidth="827" pageHeight="1169" math="0" shadow="0">
      <root>
        <mxCell id="0" />
        <mxCell id="1" parent="0" />
        <mxCell id="7tIjK8ab-BjPr54uxC3C-3" value="Pool" style="swimlane;html=1;childLayout=stackLayout;resizeParent=1;resizeParentMax=0;startSize=20;" vertex="1" parent="1">
          <mxGeometry x="128" y="93" width="600" height="174" as="geometry" />
        </mxCell>
        <mxCell id="7tIjK8ab-BjPr54uxC3C-4" value="Lane 1" style="swimlane;html=1;startSize=20;" vertex="1" parent="7tIjK8ab-BjPr54uxC3C-3">
          <mxGeometry y="20" width="120" height="154" as="geometry" />
        </mxCell>
        <mxCell id="7tIjK8ab-BjPr54uxC3C-5" value="Lane 2" style="swimlane;html=1;startSize=20;" vertex="1" parent="7tIjK8ab-BjPr54uxC3C-3">
          <mxGeometry x="120" y="20" width="120" height="154" as="geometry" />
        </mxCell>
        <mxCell id="7tIjK8ab-BjPr54uxC3C-6" value="Lane 3" style="swimlane;html=1;startSize=20;" vertex="1" parent="7tIjK8ab-BjPr54uxC3C-3">
          <mxGeometry x="240" y="20" width="120" height="154" as="geometry" />
        </mxCell>
        <mxCell id="7tIjK8ab-BjPr54uxC3C-7" value="Lane 3" style="swimlane;html=1;startSize=20;" vertex="1" parent="7tIjK8ab-BjPr54uxC3C-3">
          <mxGeometry x="360" y="20" width="120" height="154" as="geometry" />
        </mxCell>
        <mxCell id="7tIjK8ab-BjPr54uxC3C-8" value="Lane 3" style="swimlane;html=1;startSize=20;" vertex="1" parent="7tIjK8ab-BjPr54uxC3C-3">
          <mxGeometry x="480" y="20" width="120" height="154" as="geometry" />
        </mxCell>
      </root>
    </mxGraphModel>
  </diagram>
</mxfile>
